<svg width="100" height="100" viewBox="0 0 100 100" xmlns="http://www.w3.org/2000/svg">
  <path d="M30 20C30 20 25 25.5 25 30C25 32.7614 27.2386 35 30 35C32.7614 35 35 32.7614 35 30C35 25.5 30 20 30 20Z" fill="#3182CE" fill-opacity="0.1"/>
  <path d="M70 30C70 30 65 35.5 65 40C65 42.7614 67.2386 45 70 45C72.7614 45 75 42.7614 75 40C75 35.5 70 30 70 30Z" fill="#3182CE" fill-opacity="0.15"/>
  <path d="M20 60C20 60 15 65.5 15 70C15 72.7614 17.2386 75 20 75C22.7614 75 25 72.7614 25 70C25 65.5 20 60 20 60Z" fill="#3182CE" fill-opacity="0.1"/>
  <path d="M80 70C80 70 75 75.5 75 80C75 82.7614 77.2386 85 80 85C82.7614 85 85 82.7614 85 80C85 75.5 80 70 80 70Z" fill="#3182CE" fill-opacity="0.15"/>
  <path d="M50 10C50 10 45 15.5 45 20C45 22.7614 47.2386 25 50 25C52.7614 25 55 22.7614 55 20C55 15.5 50 10 50 10Z" fill="#3182CE" fill-opacity="0.1"/>
  <path d="M50 80C50 80 45 85.5 45 90C45 92.7614 47.2386 95 50 95C52.7614 95 55 92.7614 55 90C55 85.5 50 80 50 80Z" fill="#3182CE" fill-opacity="0.15"/>
</svg> 